HIERARCHY
ROOT SimulationBone
{
	OFFSET 0.000000 0.000000 0.000000
	CHANNELS 6 Xposition Yposition Zposition Zrotation Yrotation Xrotation 
	JOINT Hips
	{
		OFFSET 0.000000 0.000000 0.000000
		CHANNELS 6 Xposition Yposition Zposition Zrotation Yrotation Xrotation 
		JOINT RightUpLeg
		{
			OFFSET 0.103461 1.857828 10.548504
			CHANNELS 3 Zrotation Yrotation Xrotation
			JOINT RightLeg
			{
				OFFSET 43.500008 -0.000031 0.000006
				CHANNELS 3 Zrotation Yrotation Xrotation
				JOINT RightFoot
				{
					OFFSET 42.372200 0.000019 -0.000010
					CHANNELS 3 Zrotation Yrotation Xrotation
					JOINT RightToe
					{
						OFFSET 17.299999 -0.000000 0.000002
						CHANNELS 3 Zrotation Yrotation Xrotation
						End Site
						{
							OFFSET 0.000000 0.000000 0.000000
						}
					}
				}
			}
		}
		JOINT LeftUpLeg
		{
			OFFSET 0.103457 1.857829 -10.548504
			CHANNELS 3 Zrotation Yrotation Xrotation
			JOINT LeftLeg
			{
				OFFSET 43.500046 -0.000019 0.000011
				CHANNELS 3 Zrotation Yrotation Xrotation
				JOINT LeftFoot
				{
					OFFSET 42.372261 0.000000 0.000008
					CHANNELS 3 Zrotation Yrotation Xrotation
					JOINT LeftToe
					{
						OFFSET 17.299990 -0.000006 0.000008
						CHANNELS 3 Zrotation Yrotation Xrotation
						End Site
						{
							OFFSET 0.000000 0.000000 0.000000
						}
					}
				}
			}
		}
		JOINT Spine
		{
			OFFSET 6.901969 -2.603727 -0.000006
			CHANNELS 3 Zrotation Yrotation Xrotation
			JOINT Spine1
			{
				OFFSET 12.588100 -0.000002 0.000002
				CHANNELS 3 Zrotation Yrotation Xrotation
				JOINT Spine2
				{
					OFFSET 12.343195 0.000004 0.000008
					CHANNELS 3 Zrotation Yrotation Xrotation
					JOINT Neck
					{
						OFFSET 25.832905 -0.000008 -0.000002
						CHANNELS 3 Zrotation Yrotation Xrotation
						JOINT Head
						{
							OFFSET 11.766608 0.000010 -0.000008
							CHANNELS 3 Zrotation Yrotation Xrotation
							End Site
							{
								OFFSET 0.000000 0.000000 0.000000
							}
						}
					}
					JOINT RightShoulder
					{
						OFFSET 19.745903 -1.480370 6.000106
						CHANNELS 3 Zrotation Yrotation Xrotation
						JOINT RightArm
						{
							OFFSET 11.284119 -0.000006 -0.000014
							CHANNELS 3 Zrotation Yrotation Xrotation
							JOINT RightForeArm
							{
								OFFSET 33.000050 0.000004 0.000026
								CHANNELS 3 Zrotation Yrotation Xrotation
								JOINT RightHand
								{
									OFFSET 25.200020 0.000017 0.000004
									CHANNELS 3 Zrotation Yrotation Xrotation
									End Site
									{
										OFFSET 0.000000 0.000000 0.000000
									}
								}
							}
						}
					}
					JOINT LeftShoulder
					{
						OFFSET 19.746099 -1.480375 -6.000082
						CHANNELS 3 Zrotation Yrotation Xrotation
						JOINT LeftArm
						{
							OFFSET 11.284140 -0.000015 -0.000008
							CHANNELS 3 Zrotation Yrotation Xrotation
							JOINT LeftForeArm
							{
								OFFSET 33.000084 0.000016 0.000002
								CHANNELS 3 Zrotation Yrotation Xrotation
								JOINT LeftHand
								{
									OFFSET 25.199783 0.000142 0.000437
									CHANNELS 3 Zrotation Yrotation Xrotation
									End Site
									{
										OFFSET 0.000000 0.000000 0.000000
									}
								}
							}
						}
					}
				}
			}
		}
	}
}
MOTION
Frames: 5
Frame Time: 0.016667
77.258567 0.000000 -16.488139 0.000000 180.237792 0.000000 0.702501 89.573151 0.861465 94.752550 2.030260 -179.848921 161.137522 -2.241501 -177.361161 -16.209033 -0.691877 -1.568411 66.777871 0.236954 -2.565490 21.454558 0.003108 0.000017 -162.803761 -2.575806 178.769724 -8.407182 4.309797 4.667330 88.653054 -3.412293 -0.855191 21.454553 -0.003092 0.000000 7.636948 0.453072 0.073170 5.261862 0.902418 0.166736 4.943737 0.903271 0.161280 12.675744 -7.720780 -2.413508 -17.849950 8.027700 -5.910741 170.273500 -69.957971 8.706607 -13.343259 53.966795 33.610530 -31.275182 -19.041099 1.540102 7.211951 -2.899420 7.518213 -172.190694 75.962709 9.441766 -33.790905 -50.687229 -29.610737 -35.341003 17.006205 -1.472691 2.690726 11.223497 0.207176 
76.003055 0.000000 -16.276841 0.000000 180.030435 0.000000 0.703147 89.632999 0.728730 94.720842 1.418988 -179.587511 161.310840 -1.197295 -177.063571 -17.471743 -0.497576 -1.863014 67.793351 0.653533 -2.047835 21.454557 0.003108 0.000017 -162.353808 -1.825459 179.060915 -9.011424 4.202079 4.599103 88.526157 -3.287671 -0.371066 21.454553 -0.003091 0.000000 7.631462 0.259246 0.029090 5.250289 0.516962 0.069836 4.932182 0.517237 0.066709 12.708514 -7.792597 -2.449928 -18.075242 8.305701 -6.073797 170.722004 -69.672892 8.254162 -13.446507 53.437697 33.917112 -30.811579 -18.717788 1.509818 7.078430 -3.120972 7.233669 -172.139095 75.387921 9.491159 -33.208426 -51.073102 -29.992405 -34.410898 16.746674 -1.434206 2.850708 11.417179 0.545420 
74.751528 0.000000 -16.051409 0.000000 179.840608 0.000000 0.708064 89.709267 0.622585 94.690320 0.958646 -179.315882 161.434267 -0.402893 -177.192497 -18.802524 -0.297459 -1.842658 69.224369 0.715841 -1.875302 21.454558 0.003108 0.000017 -162.154114 -1.250198 179.408866 -10.073061 4.057015 4.497234 88.228052 -3.134359 0.140467 21.454553 -0.003091 -0.000000 7.628835 0.093760 0.002504 5.244833 0.187361 0.009227 4.926732 0.187276 0.008091 12.760887 -7.983761 -2.528601 -18.180640 8.661832 -6.305772 171.127479 -69.393565 7.845471 -13.659484 52.900790 34.139463 -30.216145 -18.339411 1.473639 7.098462 -3.390199 7.076423 -172.060210 74.940319 9.569308 -32.637409 -51.749272 -30.128763 -33.153734 16.459110 -1.388169 3.001350 11.571189 0.913325 
73.505784 0.000000 -15.812801 0.000000 179.665535 0.000000 0.734803 89.797873 0.584200 94.752713 0.770817 -179.017709 161.659407 -0.035882 -177.802596 -20.127739 -0.149844 -1.481798 70.550167 0.551072 -1.637337 21.454559 0.003108 0.000017 -161.979298 -0.978401 179.701792 -11.298794 3.917418 4.414348 87.617602 -3.001340 0.600040 21.454551 -0.003092 -0.000000 7.650698 -0.004409 0.002469 5.288530 -0.008873 0.004736 4.970436 -0.008982 0.004785 12.651842 -8.210239 -2.617310 -17.859601 9.003461 -6.516408 171.337372 -69.324217 7.631269 -14.002457 52.674147 34.166038 -29.512573 -17.998819 1.437686 7.333173 -3.533951 7.085366 -171.825999 75.007385 9.809555 -32.187660 -53.024734 -29.820450 -31.688308 16.196470 -1.340187 3.083015 11.639207 1.305131 
72.268831 0.000000 -15.563469 0.000000 179.502798 0.000000 0.781535 89.931732 0.586998 94.852503 0.764982 -178.788972 162.099158 0.032104 -178.522444 -21.129834 -0.114826 -1.049766 71.618002 0.378957 -1.250283 21.454560 0.003108 0.000017 -161.867738 -0.848694 179.985867 -12.634054 3.801385 4.255739 86.705808 -2.816776 1.030891 21.454551 -0.003093 -0.000000 7.681571 -0.051199 0.034376 5.350250 -0.103870 0.066363 5.032158 -0.103605 0.066985 12.471426 -8.457373 -2.707784 -17.360664 9.307411 -6.702005 171.390907 -69.452345 7.571838 -14.357278 52.755102 34.078056 -28.872510 -17.775308 1.411498 7.735363 -3.451860 7.290739 -172.003806 75.405325 9.629692 -31.553185 -54.649974 -29.281321 -30.173422 15.947720 -1.293823 3.296784 11.618137 1.676483 
